solid Full_arm_assembly_objects_6
  facet normal -0.27613441794031846 0.04785741353570789 0.9599267947080307
    outer loop
      vertex -0.0018843747 -0.31287947 -0.6660774
      vertex -0.0073234085 -0.2932106 -0.6686226
      vertex -0.0064819437 -0.31315458 -0.66738623
    endloop
  endfacet
  facet normal -0.7192405129908142 0.012716739137326636 0.6946447790190492
    outer loop
      vertex -0.0073234085 -0.2932106 -0.6686226
      vertex -0.010643926 -0.29356343 -0.67205423
      vertex -0.0064819437 -0.31315458 -0.66738623
    endloop
  endfacet
  facet normal -0.7192394212442577 0.012717238234609443 0.6946459002829497
    outer loop
      vertex -0.0064819437 -0.31315458 -0.66738623
      vertex -0.010643926 -0.29356343 -0.67205423
      vertex -0.009802462 -0.3135074 -0.67081785
    endloop
  endfacet
  facet normal -0.9696236522286286 -0.02583105918067062 0.24323389858410036
    outer loop
      vertex -0.010643926 -0.29356343 -0.67205423
      vertex -0.011797663 -0.29389942 -0.67668915
      vertex -0.009802462 -0.3135074 -0.67081785
    endloop
  endfacet
  facet normal -0.969623649160962 -0.025831055076253974 0.24323391124887783
    outer loop
      vertex -0.009802462 -0.3135074 -0.67081785
      vertex -0.011797663 -0.29389942 -0.67668915
      vertex -0.010956198 -0.31384343 -0.67545277
    endloop
  endfacet
  facet normal -0.9601965015366581 -0.05745778392249985 -0.27335193707650607
    outer loop
      vertex -0.011797663 -0.29389942 -0.67668915
      vertex -0.010475475 -0.29412857 -0.6812854
      vertex -0.010956198 -0.31384343 -0.67545277
    endloop
  endfacet
  facet normal -0.9601971838121991 -0.05745710073181075 -0.2733496840580145
    outer loop
      vertex -0.010956198 -0.31384343 -0.67545277
      vertex -0.010475475 -0.29412857 -0.6812854
      vertex -0.0096340105 -0.31407258 -0.68004906
    endloop
  endfacet
  facet normal -0.6934898929331855 -0.07368715774952436 -0.7166881966255029
    outer loop
      vertex -0.010475475 -0.29412857 -0.6812854
      vertex -0.007031643 -0.29418945 -0.6846115
      vertex -0.0096340105 -0.31407258 -0.68004906
    endloop
  endfacet
  facet normal -0.6934834025439214 -0.07368939552078872 -0.7166942467913958
    outer loop
      vertex -0.0096340105 -0.31407258 -0.68004906
      vertex -0.007031643 -0.29418945 -0.6846115
      vertex -0.006190178 -0.31413347 -0.6833751
    endloop
  endfacet
  facet normal -0.24094805156391444 -0.0701755030815196 -0.967997642153538
    outer loop
      vertex -0.007031643 -0.29418945 -0.6846115
      vertex -0.0023889379 -0.29406577 -0.6857761
      vertex -0.006190178 -0.31413347 -0.6833751
    endloop
  endfacet
  facet normal -0.2409561225026809 -0.07017374912357155 -0.9679957603018803
    outer loop
      vertex -0.006190178 -0.31413347 -0.6833751
      vertex -0.0023889379 -0.29406577 -0.6857761
      vertex -0.001547473 -0.3140098 -0.68453974
    endloop
  endfacet
  facet normal 0.276136227223465 -0.04785670445264192 -0.9599263095955456
    outer loop
      vertex -0.0023889379 -0.29406577 -0.6857761
      vertex 0.002208631 -0.29379067 -0.68446726
      vertex -0.001547473 -0.3140098 -0.68453974
    endloop
  endfacet
  facet normal 0.276128931301529 -0.04785534132356274 -0.9599284762965836
    outer loop
      vertex -0.001547473 -0.3140098 -0.68453974
      vertex 0.002208631 -0.29379067 -0.68446726
      vertex 0.0030500959 -0.31373465 -0.68323094
    endloop
  endfacet
  facet normal 0.719239381606004 -0.012715116234798346 -0.6946459801698622
    outer loop
      vertex 0.002208631 -0.29379067 -0.68446726
      vertex 0.005529149 -0.29343784 -0.68103564
      vertex 0.0030500959 -0.31373465 -0.68323094
    endloop
  endfacet
  facet normal 0.7192454951422775 -0.012716550437847349 -0.6946396238788152
    outer loop
      vertex 0.0030500959 -0.31373465 -0.68323094
      vertex 0.005529149 -0.29343784 -0.68103564
      vertex 0.006370614 -0.31338182 -0.67979926
    endloop
  endfacet
  facet normal 0.969623890696485 0.025831164532952814 -0.24323293676943147
    outer loop
      vertex 0.005529149 -0.29343784 -0.68103564
      vertex 0.0066828853 -0.29310182 -0.6764007
      vertex 0.006370614 -0.31338182 -0.67979926
    endloop
  endfacet
  facet normal 0.9696236915355876 0.025831298268416732 -0.24323371650054582
    outer loop
      vertex 0.006370614 -0.31338182 -0.67979926
      vertex 0.0066828853 -0.29310182 -0.6764007
      vertex 0.00752435 -0.31304583 -0.67516434
    endloop
  endfacet
  facet normal 0.9601957641651072 0.057457626861995015 0.2733545602231169
    outer loop
      vertex 0.0066828853 -0.29310182 -0.6764007
      vertex 0.005360698 -0.29287267 -0.6718045
      vertex 0.00752435 -0.31304583 -0.67516434
    endloop
  endfacet
  facet normal 0.9601963717585713 0.05745806275043371 0.27335233433545497
    outer loop
      vertex 0.00752435 -0.31304583 -0.67516434
      vertex 0.005360698 -0.29287267 -0.6718045
      vertex 0.0062021627 -0.31281668 -0.6705681
    endloop
  endfacet
  facet normal 0.6934931112281086 0.07368925019492387 0.7166848673474753
    outer loop
      vertex 0.005360698 -0.29287267 -0.6718045
      vertex 0.0019168657 -0.29281178 -0.66847837
      vertex 0.0062021627 -0.31281668 -0.6705681
    endloop
  endfacet
  facet normal 0.6934845411254292 0.07368651877611551 0.716693440859277
    outer loop
      vertex 0.0062021627 -0.31281668 -0.6705681
      vertex 0.0019168657 -0.29281178 -0.66847837
      vertex 0.0027583307 -0.3127558 -0.66724205
    endloop
  endfacet
  facet normal 0.24095212520119658 0.07017174612126949 0.967996900515347
    outer loop
      vertex 0.0019168657 -0.29281178 -0.66847837
      vertex -0.0027258396 -0.29293546 -0.66731375
      vertex 0.0027583307 -0.3127558 -0.66724205
    endloop
  endfacet
  facet normal 0.24095808063091034 0.0701733881599692 0.967995299044793
    outer loop
      vertex 0.0027583307 -0.3127558 -0.66724205
      vertex -0.0027258396 -0.29293546 -0.66731375
      vertex -0.0018843747 -0.31287947 -0.6660774
    endloop
  endfacet
  facet normal -0.2761385179171567 0.04785613539512669 0.9599256790124742
    outer loop
      vertex -0.0027258396 -0.29293546 -0.66731375
      vertex -0.0073234085 -0.2932106 -0.6686226
      vertex -0.0018843747 -0.31287947 -0.6660774
    endloop
  endfacet
  facet normal 0.276157583728177 -0.04785353248618223 -0.9599203239738227
    outer loop
      vertex -0.002634785 -0.29324096 -0.67230356
      vertex -0.0017933202 -0.31318498 -0.67106724
      vertex -0.0047471817 -0.29336736 -0.67290497
    endloop
  endfacet
  facet normal 0.2761365644873665 -0.04785720918123721 -0.9599261874136458
    outer loop
      vertex -0.0017933202 -0.31318498 -0.67106724
      vertex -0.0039057166 -0.31331137 -0.6716686
      vertex -0.0047471817 -0.29336736 -0.67290497
    endloop
  endfacet
  facet normal 0.7192328848009634 -0.01271751977315039 -0.6946526629270947
    outer loop
      vertex -0.0047471817 -0.29336736 -0.67290497
      vertex -0.0039057166 -0.31331137 -0.6716686
      vertex -0.006272825 -0.29352948 -0.67448163
    endloop
  endfacet
  facet normal 0.7192307269302564 -0.012718094200445243 -0.6946548866302488
    outer loop
      vertex -0.0039057166 -0.31331137 -0.6716686
      vertex -0.00543136 -0.3134735 -0.67324525
      vertex -0.006272825 -0.29352948 -0.67448163
    endloop
  endfacet
  facet normal 0.9696239676489431 0.025831134793594245 -0.24323263316421298
    outer loop
      vertex -0.006272825 -0.29352948 -0.67448163
      vertex -0.00543136 -0.3134735 -0.67324525
      vertex -0.0068029203 -0.29368386 -0.6766112
    endloop
  endfacet
  facet normal 0.9696235040663546 0.02583078196771923 -0.24323451865436438
    outer loop
      vertex -0.00543136 -0.3134735 -0.67324525
      vertex -0.005961455 -0.31362787 -0.6753748
      vertex -0.0068029203 -0.29368386 -0.6766112
    endloop
  endfacet
  facet normal 0.9601968230201094 0.05745801305580315 0.2733507596436637
    outer loop
      vertex -0.0068029203 -0.29368386 -0.6766112
      vertex -0.005961455 -0.31362787 -0.6753748
      vertex -0.0061954283 -0.29378915 -0.678723
    endloop
  endfacet
  facet normal 0.9601966643024609 0.057458102118502934 0.2733512984482917
    outer loop
      vertex -0.005961455 -0.31362787 -0.6753748
      vertex -0.0053539635 -0.31373313 -0.6774866
      vertex -0.0061954283 -0.29378915 -0.678723
    endloop
  endfacet
  facet normal 0.6934873450585347 0.07368946575516448 0.7166904247165462
    outer loop
      vertex -0.0061954283 -0.29378915 -0.678723
      vertex -0.0053539635 -0.31373313 -0.6774866
      vertex -0.004613127 -0.2938171 -0.6802512
    endloop
  endfacet
  facet normal 0.6934883149152964 0.07368930174915296 0.7166895031208877
    outer loop
      vertex -0.0053539635 -0.31373313 -0.6774866
      vertex -0.0037716622 -0.31376112 -0.6790148
      vertex -0.004613127 -0.2938171 -0.6802512
    endloop
  endfacet
  facet normal 0.24095462762884917 0.07017567586464386 0.9679959927299198
    outer loop
      vertex -0.004613127 -0.2938171 -0.6802512
      vertex -0.0037716622 -0.31376112 -0.6790148
      vertex -0.0024799923 -0.2937603 -0.6807863
    endloop
  endfacet
  facet normal 0.2409662447937242 0.07017467590558675 0.9679931733909889
    outer loop
      vertex -0.0037716622 -0.31376112 -0.6790148
      vertex -0.0016385275 -0.31370428 -0.67954993
      vertex -0.0024799923 -0.2937603 -0.6807863
    endloop
  endfacet
  facet normal -0.27615394575425134 0.047856244992516984 0.9599212353415119
    outer loop
      vertex -0.0024799923 -0.2937603 -0.6807863
      vertex -0.0016385275 -0.31370428 -0.67954993
      vertex -3.6759584E-4 -0.29363388 -0.6801849
    endloop
  endfacet
  facet normal -0.27612362492520104 0.04785460350343171 0.9599300394725109
    outer loop
      vertex -0.0016385275 -0.31370428 -0.67954993
      vertex 4.7386906E-4 -0.3135779 -0.6789486
      vertex -3.6759584E-4 -0.29363388 -0.6801849
    endloop
  endfacet
  facet normal -0.7192326933002263 0.012715105610529069 0.6946529053976639
    outer loop
      vertex -3.6759584E-4 -0.29363388 -0.6801849
      vertex 4.7386906E-4 -0.3135779 -0.6789486
      vertex 0.0011580475 -0.29347178 -0.67860824
    endloop
  endfacet
  facet normal -0.7192504716223909 0.012716022473585534 0.6946344807475509
    outer loop
      vertex 4.7386906E-4 -0.3135779 -0.6789486
      vertex 0.0019995123 -0.31341577 -0.67737186
      vertex 0.0011580475 -0.29347178 -0.67860824
    endloop
  endfacet
  facet normal -0.9696231212374107 -0.025830917614376746 0.24323603034300026
    outer loop
      vertex 0.0011580475 -0.29347178 -0.67860824
      vertex 0.0019995123 -0.31341577 -0.67737186
      vertex 0.0016881427 -0.29331738 -0.6764787
    endloop
  endfacet
  facet normal -0.9696237399734071 -0.025830818059683326 0.24323357440606352
    outer loop
      vertex 0.0019995123 -0.31341577 -0.67737186
      vertex 0.0025296076 -0.3132614 -0.6752423
      vertex 0.0016881427 -0.29331738 -0.6764787
    endloop
  endfacet
  facet normal -0.9601966689357355 -0.05745799231161913 -0.2733513052543107
    outer loop
      vertex 0.0016881427 -0.29331738 -0.6764787
      vertex 0.0025296076 -0.3132614 -0.6752423
      vertex 0.0010806512 -0.29321212 -0.6743669
    endloop
  endfacet
  facet normal -0.9601969407339989 -0.05745805420888335 -0.2733503375004289
    outer loop
      vertex 0.0025296076 -0.3132614 -0.6752423
      vertex 0.001922116 -0.3131561 -0.6731305
      vertex 0.0010806512 -0.29321212 -0.6743669
    endloop
  endfacet
  facet normal -0.6934882860428081 -0.07368944911618598 -0.7166895159065476
    outer loop
      vertex 0.0010806512 -0.29321212 -0.6743669
      vertex 0.001922116 -0.3131561 -0.6731305
      vertex -5.016502E-4 -0.29318413 -0.6728387
    endloop
  endfacet
  facet normal -0.6934875904781514 -0.07368935472825136 -0.7166901986580684
    outer loop
      vertex 0.001922116 -0.3131561 -0.6731305
      vertex 3.398147E-4 -0.31312814 -0.6716023
      vertex -5.016502E-4 -0.29318413 -0.6728387
    endloop
  endfacet
  facet normal -0.24097075310654661 -0.07017614167229515 -0.9679919448462645
    outer loop
      vertex -5.016502E-4 -0.29318413 -0.6728387
      vertex 3.398147E-4 -0.31312814 -0.6716023
      vertex -0.002634785 -0.29324096 -0.67230356
    endloop
  endfacet
  facet normal -0.24093646638585065 -0.07017132653639994 -0.9680008285624667
    outer loop
      vertex 3.398147E-4 -0.31312814 -0.6716023
      vertex -0.0017933202 -0.31318498 -0.67106724
      vertex -0.002634785 -0.29324096 -0.67230356
    endloop
  endfacet
  facet normal -0.04208309682080272 0.9972003472325375 -0.061810035117912526
    outer loop
      vertex 0.0010806512 -0.29321212 -0.6743669
      vertex 0.005360698 -0.29287267 -0.6718045
      vertex 0.0016881427 -0.29331738 -0.6764787
    endloop
  endfacet
  facet normal -0.04207115217340809 0.997200269935808 -0.06181941276616618
    outer loop
      vertex 0.005360698 -0.29287267 -0.6718045
      vertex 0.0066828853 -0.29310182 -0.6764007
      vertex 0.0016881427 -0.29331738 -0.6764787
    endloop
  endfacet
  facet normal -0.04207098844630094 0.9971997209110552 -0.06182837977874434
    outer loop
      vertex 0.0016881427 -0.29331738 -0.6764787
      vertex 0.0066828853 -0.29310182 -0.6764007
      vertex 0.0011580475 -0.29347178 -0.67860824
    endloop
  endfacet
  facet normal -0.04207393229336295 0.9972000500673968 -0.061821067339175605
    outer loop
      vertex 0.0066828853 -0.29310182 -0.6764007
      vertex 0.005529149 -0.29343784 -0.68103564
      vertex 0.0011580475 -0.29347178 -0.67860824
    endloop
  endfacet
  facet normal -0.0420706338527493 0.9972005578765651 -0.06181512062509584
    outer loop
      vertex 0.0011580475 -0.29347178 -0.67860824
      vertex 0.005529149 -0.29343784 -0.68103564
      vertex -3.6759584E-4 -0.29363388 -0.6801849
    endloop
  endfacet
  facet normal -0.04207135605959461 0.9972002121504421 -0.06182020613375615
    outer loop
      vertex 0.005529149 -0.29343784 -0.68103564
      vertex 0.002208631 -0.29379067 -0.68446726
      vertex -3.6759584E-4 -0.29363388 -0.6801849
    endloop
  endfacet
  facet normal -0.04207779932983583 0.9971997011428224 -0.06182406363402425
    outer loop
      vertex -3.6759584E-4 -0.29363388 -0.6801849
      vertex 0.002208631 -0.29379067 -0.68446726
      vertex -0.0024799923 -0.2937603 -0.6807863
    endloop
  endfacet
  facet normal -0.04207085105914344 0.9972005425394109 -0.061815220215283295
    outer loop
      vertex 0.002208631 -0.29379067 -0.68446726
      vertex -0.0023889379 -0.29406577 -0.6857761
      vertex -0.0024799923 -0.2937603 -0.6807863
    endloop
  endfacet
  facet normal -0.04205934452432698 0.9972010390533104 -0.06181504063884277
    outer loop
      vertex -0.0024799923 -0.2937603 -0.6807863
      vertex -0.0023889379 -0.29406577 -0.6857761
      vertex -0.004613127 -0.2938171 -0.6802512
    endloop
  endfacet
  facet normal -0.04207236219993041 0.9972001674774967 -0.0618202420067276
    outer loop
      vertex -0.0023889379 -0.29406577 -0.6857761
      vertex -0.007031643 -0.29418945 -0.6846115
      vertex -0.004613127 -0.2938171 -0.6802512
    endloop
  endfacet
  facet normal -0.04208503148537655 0.9972000690154473 -0.06181320635966109
    outer loop
      vertex -0.004613127 -0.2938171 -0.6802512
      vertex -0.007031643 -0.29418945 -0.6846115
      vertex -0.0061954283 -0.29378915 -0.678723
    endloop
  endfacet
  facet normal -0.042073196527044 0.997200462579665 -0.06181491377409395
    outer loop
      vertex -0.007031643 -0.29418945 -0.6846115
      vertex -0.010475475 -0.29412857 -0.6812854
      vertex -0.0061954283 -0.29378915 -0.678723
    endloop
  endfacet
  facet normal -0.04206989119286129 0.997200261429458 -0.061820408119339754
    outer loop
      vertex -0.0061954283 -0.29378915 -0.678723
      vertex -0.010475475 -0.29412857 -0.6812854
      vertex -0.0068029203 -0.29368386 -0.6766112
    endloop
  endfacet
  facet normal -0.04207177791970017 0.9972002736580444 -0.06181892686707302
    outer loop
      vertex -0.010475475 -0.29412857 -0.6812854
      vertex -0.011797663 -0.29389942 -0.67668915
      vertex -0.0068029203 -0.29368386 -0.6766112
    endloop
  endfacet
  facet normal -0.04207179510758912 0.9972003313215955 -0.061817984992438235
    outer loop
      vertex -0.0068029203 -0.29368386 -0.6766112
      vertex -0.011797663 -0.29389942 -0.67668915
      vertex -0.006272825 -0.29352948 -0.67448163
    endloop
  endfacet
  facet normal -0.04207293605092008 0.9972004588710852 -0.061815150888370154
    outer loop
      vertex -0.011797663 -0.29389942 -0.67668915
      vertex -0.010643926 -0.29356343 -0.67205423
      vertex -0.006272825 -0.29352948 -0.67448163
    endloop
  endfacet
  facet normal -0.04207666222059003 0.9971998851987941 -0.06182186875116361
    outer loop
      vertex -0.006272825 -0.29352948 -0.67448163
      vertex -0.010643926 -0.29356343 -0.67205423
      vertex -0.0047471817 -0.29336736 -0.67290497
    endloop
  endfacet
  facet normal -0.04207579299950472 0.997200301314564 -0.061815748006518664
    outer loop
      vertex -0.010643926 -0.29356343 -0.67205423
      vertex -0.0073234085 -0.2932106 -0.6686226
      vertex -0.0047471817 -0.29336736 -0.67290497
    endloop
  endfacet
  facet normal -0.04207125833221473 0.9972006609270594 -0.06181303316437592
    outer loop
      vertex -0.0047471817 -0.29336736 -0.67290497
      vertex -0.0073234085 -0.2932106 -0.6686226
      vertex -0.002634785 -0.29324096 -0.67230356
    endloop
  endfacet
  facet normal -0.04207765729158176 0.9971998860688113 -0.06182117744917321
    outer loop
      vertex -0.0073234085 -0.2932106 -0.6686226
      vertex -0.0027258396 -0.29293546 -0.66731375
      vertex -0.002634785 -0.29324096 -0.67230356
    endloop
  endfacet
  facet normal -0.04207603046469029 0.9971999562866491 -0.061821152061729126
    outer loop
      vertex -0.002634785 -0.29324096 -0.67230356
      vertex -0.0027258396 -0.29293546 -0.66731375
      vertex -5.016502E-4 -0.29318413 -0.6728387
    endloop
  endfacet
  facet normal -0.042072501999689184 0.9972001925618711 -0.061819742235414976
    outer loop
      vertex -0.0027258396 -0.29293546 -0.66731375
      vertex 0.0019168657 -0.29281178 -0.66847837
      vertex -5.016502E-4 -0.29318413 -0.6728387
    endloop
  endfacet
  facet normal -0.04206835423108022 0.9972002247543258 -0.06182204560034168
    outer loop
      vertex -5.016502E-4 -0.29318413 -0.6728387
      vertex 0.0019168657 -0.29281178 -0.66847837
      vertex 0.0010806512 -0.29321212 -0.6743669
    endloop
  endfacet
  facet normal -0.042076585880670876 0.9971999510789662 -0.061820858039449554
    outer loop
      vertex 0.0019168657 -0.29281178 -0.66847837
      vertex 0.005360698 -0.29287267 -0.6718045
      vertex 0.0010806512 -0.29321212 -0.6743669
    endloop
  endfacet
  facet normal 0.04207594918591739 -0.9972006300648926 0.06181033811819149
    outer loop
      vertex 0.001922116 -0.3131561 -0.6731305
      vertex 0.0062021627 -0.31281668 -0.6705681
      vertex 3.398147E-4 -0.31312814 -0.6716023
    endloop
  endfacet
  facet normal 0.042074686258625336 -0.9972002467472946 0.061817381563545985
    outer loop
      vertex 0.0062021627 -0.31281668 -0.6705681
      vertex 0.0027583307 -0.3127558 -0.66724205
      vertex 3.398147E-4 -0.31312814 -0.6716023
    endloop
  endfacet
  facet normal 0.04207710881305179 -0.9972002279275921 0.061816036229225886
    outer loop
      vertex 3.398147E-4 -0.31312814 -0.6716023
      vertex 0.0027583307 -0.3127558 -0.66724205
      vertex -0.0017933202 -0.31318498 -0.67106724
    endloop
  endfacet
  facet normal 0.042071491147318334 -0.9972000517811882 0.0618227010105251
    outer loop
      vertex 0.0027583307 -0.3127558 -0.66724205
      vertex -0.0018843747 -0.31287947 -0.6660774
      vertex -0.0017933202 -0.31318498 -0.67106724
    endloop
  endfacet
  facet normal 0.04206526175791983 -0.9972003206042117 0.0618226037958218
    outer loop
      vertex -0.0017933202 -0.31318498 -0.67106724
      vertex -0.0018843747 -0.31287947 -0.6660774
      vertex -0.0039057166 -0.31331137 -0.6716686
    endloop
  endfacet
  facet normal 0.04207169571669812 -0.9972001939852772 0.06182026799721342
    outer loop
      vertex -0.0018843747 -0.31287947 -0.6660774
      vertex -0.0064819437 -0.31315458 -0.66738623
      vertex -0.0039057166 -0.31331137 -0.6716686
    endloop
  endfacet
  facet normal 0.042080049268017235 -0.9971995314623153 0.061825269145716316
    outer loop
      vertex -0.0039057166 -0.31331137 -0.6716686
      vertex -0.0064819437 -0.31315458 -0.66738623
      vertex -0.00543136 -0.3134735 -0.67324525
    endloop
  endfacet
  facet normal 0.042065734977665976 -0.9972002919599446 0.06182274383905818
    outer loop
      vertex -0.0064819437 -0.31315458 -0.66738623
      vertex -0.009802462 -0.3135074 -0.67081785
      vertex -0.00543136 -0.3134735 -0.67324525
    endloop
  endfacet
  facet normal 0.04206217245268786 -0.9972008404048716 0.06181632101944053
    outer loop
      vertex -0.00543136 -0.3134735 -0.67324525
      vertex -0.009802462 -0.3135074 -0.67081785
      vertex -0.005961455 -0.31362787 -0.6753748
    endloop
  endfacet
  facet normal 0.04207143381010924 -0.9971999672042497 0.0618241042394026
    outer loop
      vertex -0.009802462 -0.3135074 -0.67081785
      vertex -0.010956198 -0.31384343 -0.67545277
      vertex -0.005961455 -0.31362787 -0.6753748
    endloop
  endfacet
  facet normal 0.04207174956831304 -0.9972010262602539 0.06180680475285757
    outer loop
      vertex -0.005961455 -0.31362787 -0.6753748
      vertex -0.010956198 -0.31384343 -0.67545277
      vertex -0.0053539635 -0.31373313 -0.6774866
    endloop
  endfacet
  facet normal 0.042076413469593205 -0.9972000297964831 0.06181970562392852
    outer loop
      vertex -0.010956198 -0.31384343 -0.67545277
      vertex -0.0096340105 -0.31407258 -0.68004906
      vertex -0.0053539635 -0.31373313 -0.6774866
    endloop
  endfacet
  facet normal 0.04207245673684269 -0.9971997889906047 0.06182628260877246
    outer loop
      vertex -0.0053539635 -0.31373313 -0.6774866
      vertex -0.0096340105 -0.31407258 -0.68004906
      vertex -0.0037716622 -0.31376112 -0.6790148
    endloop
  endfacet
  facet normal 0.04207366977753384 -0.9972001572060668 0.06181951778885698
    outer loop
      vertex -0.0096340105 -0.31407258 -0.68004906
      vertex -0.006190178 -0.31413347 -0.6833751
      vertex -0.0037716622 -0.31376112 -0.6790148
    endloop
  endfacet
  facet normal 0.04207923617839988 -0.9972001139618899 0.06181642659549577
    outer loop
      vertex -0.0037716622 -0.31376112 -0.6790148
      vertex -0.006190178 -0.31413347 -0.6833751
      vertex -0.0016385275 -0.31370428 -0.67954993
    endloop
  endfacet
  facet normal 0.04207195130083688 -0.9971998855335082 0.06182506939501185
    outer loop
      vertex -0.006190178 -0.31413347 -0.6833751
      vertex -0.001547473 -0.3140098 -0.68453974
      vertex -0.0016385275 -0.31370428 -0.67954993
    endloop
  endfacet
  facet normal 0.04206076652233465 -0.9972003681792525 0.06182489484598366
    outer loop
      vertex -0.0016385275 -0.31370428 -0.67954993
      vertex -0.001547473 -0.3140098 -0.68453974
      vertex 4.7386906E-4 -0.3135779 -0.6789486
    endloop
  endfacet
  facet normal 0.04208159753234926 -0.9971999581757959 0.06181733222419495
    outer loop
      vertex -0.001547473 -0.3140098 -0.68453974
      vertex 0.0030500959 -0.31373465 -0.68323094
      vertex 4.7386906E-4 -0.3135779 -0.6789486
    endloop
  endfacet
  facet normal 0.04208347629969718 -0.9971998091625204 0.06181845702349553
    outer loop
      vertex 4.7386906E-4 -0.3135779 -0.6789486
      vertex 0.0030500959 -0.31373465 -0.68323094
      vertex 0.0019995123 -0.31341577 -0.67737186
    endloop
  endfacet
  facet normal 0.042073818030860445 -0.9972003223361333 0.06181675314199152
    outer loop
      vertex 0.0030500959 -0.31373465 -0.68323094
      vertex 0.006370614 -0.31338182 -0.67979926
      vertex 0.0019995123 -0.31341577 -0.67737186
    endloop
  endfacet
  facet normal 0.04207204159835357 -0.9972005958173167 0.06181355043463511
    outer loop
      vertex 0.0019995123 -0.31341577 -0.67737186
      vertex 0.006370614 -0.31338182 -0.67979926
      vertex 0.0025296076 -0.3132614 -0.6752423
    endloop
  endfacet
  facet normal 0.04207372211801042 -0.9972004373690035 0.0618149627372253
    outer loop
      vertex 0.006370614 -0.31338182 -0.67979926
      vertex 0.00752435 -0.31304583 -0.67516434
      vertex 0.0025296076 -0.3132614 -0.6752423
    endloop
  endfacet
  facet normal 0.04207351812062997 -0.9971997530400698 0.06182614018177872
    outer loop
      vertex 0.0025296076 -0.3132614 -0.6752423
      vertex 0.00752435 -0.31304583 -0.67516434
      vertex 0.001922116 -0.3131561 -0.6731305
    endloop
  endfacet
  facet normal 0.04207086228955603 -0.9972003205309967 0.06181879389870574
    outer loop
      vertex 0.00752435 -0.31304583 -0.67516434
      vertex 0.0062021627 -0.31281668 -0.6705681
      vertex 0.001922116 -0.3131561 -0.6731305
    endloop
  endfacet
endsolid Full_arm_assembly_objects_6
