solid Full_arm_assembly_objects_5
  facet normal -0.2761344947437133 0.047857348216268976 0.9599267758711292
    outer loop
      vertex -0.0048295017 -0.24307546 -0.6704047
      vertex -0.010268535 -0.22340657 -0.6729499
      vertex -0.009427071 -0.24335058 -0.67171353
    endloop
  endfacet
  facet normal -0.7192374430531009 0.012717075051877327 0.6946479514923817
    outer loop
      vertex -0.010268535 -0.22340657 -0.6729499
      vertex -0.013589053 -0.2237594 -0.6763815
      vertex -0.009427071 -0.24335058 -0.67171353
    endloop
  endfacet
  facet normal -0.7192394260051379 0.01271616854219653 0.6946459149360964
    outer loop
      vertex -0.009427071 -0.24335058 -0.67171353
      vertex -0.013589053 -0.2237594 -0.6763815
      vertex -0.012747589 -0.24370341 -0.67514515
    endloop
  endfacet
  facet normal -0.9696239932596576 -0.025831474648254957 0.24323249497690916
    outer loop
      vertex -0.013589053 -0.2237594 -0.6763815
      vertex -0.01474279 -0.2240954 -0.68101645
      vertex -0.012747589 -0.24370341 -0.67514515
    endloop
  endfacet
  facet normal -0.9696236757024295 -0.025831049768435855 0.24323380600806788
    outer loop
      vertex -0.012747589 -0.24370341 -0.67514515
      vertex -0.01474279 -0.2240954 -0.68101645
      vertex -0.013901325 -0.24403942 -0.67978007
    endloop
  endfacet
  facet normal -0.9601965027453696 -0.05745775527406753 -0.27335193885251025
    outer loop
      vertex -0.01474279 -0.2240954 -0.68101645
      vertex -0.013420602 -0.22432455 -0.6856127
      vertex -0.013901325 -0.24403942 -0.67978007
    endloop
  endfacet
  facet normal -0.9601961072585611 -0.05745815128836698 -0.2733532448244006
    outer loop
      vertex -0.013901325 -0.24403942 -0.67978007
      vertex -0.013420602 -0.22432455 -0.6856127
      vertex -0.012579137 -0.24426855 -0.6843763
    endloop
  endfacet
  facet normal -0.6934834515288687 -0.07368946808291109 -0.7166941919321412
    outer loop
      vertex -0.013420602 -0.22432455 -0.6856127
      vertex -0.00997677 -0.22438544 -0.68893874
      vertex -0.012579137 -0.24426855 -0.6843763
    endloop
  endfacet
  facet normal -0.6934901135762256 -0.07368717112437106 -0.7166879817491858
    outer loop
      vertex -0.012579137 -0.24426855 -0.6843763
      vertex -0.00997677 -0.22438544 -0.68893874
      vertex -0.009135305 -0.24432945 -0.6877024
    endloop
  endfacet
  facet normal -0.24095993859052717 -0.07017295567486503 -0.9679948679028743
    outer loop
      vertex -0.00997677 -0.22438544 -0.68893874
      vertex -0.005334065 -0.22426176 -0.6901034
      vertex -0.009135305 -0.24432945 -0.6877024
    endloop
  endfacet
  facet normal -0.24095385320933058 -0.07017427814055271 -0.9679962868270873
    outer loop
      vertex -0.009135305 -0.24432945 -0.6877024
      vertex -0.005334065 -0.22426176 -0.6901034
      vertex -0.0044926 -0.24420576 -0.68886703
    endloop
  endfacet
  facet normal 0.2761383651014842 -0.04785712673568023 -0.9599256735496163
    outer loop
      vertex -0.005334065 -0.22426176 -0.6901034
      vertex -7.3649606E-4 -0.22398664 -0.68879455
      vertex -0.0044926 -0.24420576 -0.68886703
    endloop
  endfacet
  facet normal 0.27613438501428506 -0.047856383118121446 -0.9599268555507936
    outer loop
      vertex -0.0044926 -0.24420576 -0.68886703
      vertex -7.3649606E-4 -0.22398664 -0.68879455
      vertex 1.0496881E-4 -0.24393065 -0.6875582
    endloop
  endfacet
  facet normal 0.7192384331857526 -0.012716242696509379 -0.694646941546702
    outer loop
      vertex -7.3649606E-4 -0.22398664 -0.68879455
      vertex 0.0025840218 -0.22363381 -0.68536294
      vertex 1.0496881E-4 -0.24393065 -0.6875582
    endloop
  endfacet
  facet normal 0.7192415026694357 -0.012716962771285211 -0.6946437502027107
    outer loop
      vertex 1.0496881E-4 -0.24393065 -0.6875582
      vertex 0.0025840218 -0.22363381 -0.68536294
      vertex 0.0034254866 -0.24357782 -0.68412656
    endloop
  endfacet
  facet normal 0.9696239057336236 0.02583112001138357 -0.24323288155352396
    outer loop
      vertex 0.0025840218 -0.22363381 -0.68536294
      vertex 0.0037377581 -0.2232978 -0.680728
      vertex 0.0034254866 -0.24357782 -0.68412656
    endloop
  endfacet
  facet normal 0.9696236591540272 0.02583128558806598 -0.24323384693258163
    outer loop
      vertex 0.0034254866 -0.24357782 -0.68412656
      vertex 0.0037377581 -0.2232978 -0.680728
      vertex 0.004579223 -0.24324182 -0.67949164
    endloop
  endfacet
  facet normal 0.9601973525039811 0.05745733265860378 0.27334904274224897
    outer loop
      vertex 0.0037377581 -0.2232978 -0.680728
      vertex 0.002415571 -0.22306865 -0.6761317
      vertex 0.004579223 -0.24324182 -0.67949164
    endloop
  endfacet
  facet normal 0.960196430470581 0.05745667116756472 0.27335242060369125
    outer loop
      vertex 0.004579223 -0.24324182 -0.67949164
      vertex 0.002415571 -0.22306865 -0.6761317
      vertex 0.0032570357 -0.24301267 -0.6748954
    endloop
  endfacet
  facet normal 0.693482366485379 0.07368583269809804 0.7166956156091834
    outer loop
      vertex 0.002415571 -0.22306865 -0.6761317
      vertex -0.0010282615 -0.22300777 -0.67280567
      vertex 0.0032570357 -0.24301267 -0.6748954
    endloop
  endfacet
  facet normal 0.6934899286091912 0.07368824285289954 0.716688050537241
    outer loop
      vertex 0.0032570357 -0.24301267 -0.6748954
      vertex -0.0010282615 -0.22300777 -0.67280567
      vertex -1.8679658E-4 -0.24295178 -0.6715693
    endloop
  endfacet
  facet normal 0.24095203171066673 0.07017419362427324 0.9679967463600717
    outer loop
      vertex -0.0010282615 -0.22300777 -0.67280567
      vertex -0.0056709666 -0.22313145 -0.67164105
      vertex -1.8679658E-4 -0.24295178 -0.6715693
    endloop
  endfacet
  facet normal 0.24094815097664848 0.070173123625399 0.9679977899053224
    outer loop
      vertex -1.8679658E-4 -0.24295178 -0.6715693
      vertex -0.0056709666 -0.22313145 -0.67164105
      vertex -0.0048295017 -0.24307546 -0.6704047
    endloop
  endfacet
  facet normal -0.27613835366758094 0.04785614522368525 0.9599257257715763
    outer loop
      vertex -0.0056709666 -0.22313145 -0.67164105
      vertex -0.010268535 -0.22340657 -0.6729499
      vertex -0.0048295017 -0.24307546 -0.6704047
    endloop
  endfacet
  facet normal 0.2761325193977248 -0.04785649710088212 -0.959927386533116
    outer loop
      vertex -0.005579912 -0.22343694 -0.67663085
      vertex -0.0047384473 -0.24338095 -0.6753945
      vertex -0.0076923086 -0.22356334 -0.6772322
    endloop
  endfacet
  facet normal 0.27615356268428304 -0.04785281621552504 -0.9599215164777904
    outer loop
      vertex -0.0047384473 -0.24338095 -0.6753945
      vertex -0.006850844 -0.24350736 -0.6759959
      vertex -0.0076923086 -0.22356334 -0.6772322
    endloop
  endfacet
  facet normal 0.7192414791783728 -0.012714182886721345 -0.694643825411865
    outer loop
      vertex -0.0076923086 -0.22356334 -0.6772322
      vertex -0.006850844 -0.24350736 -0.6759959
      vertex -0.009217952 -0.22372545 -0.6788089
    endloop
  endfacet
  facet normal 0.7192305809900592 -0.01271708399561252 -0.6946550562281617
    outer loop
      vertex -0.006850844 -0.24350736 -0.6759959
      vertex -0.0083764875 -0.24366947 -0.67757255
      vertex -0.009217952 -0.22372545 -0.6788089
    endloop
  endfacet
  facet normal 0.9696247560790452 0.02583170823742555 -0.2432294292395325
    outer loop
      vertex -0.009217952 -0.22372545 -0.6788089
      vertex -0.0083764875 -0.24366947 -0.67757255
      vertex -0.009748047 -0.22387984 -0.6809385
    endloop
  endfacet
  facet normal 0.9696235572352525 0.025830795808182393 -0.2432343052333918
    outer loop
      vertex -0.0083764875 -0.24366947 -0.67757255
      vertex -0.008906582 -0.24382384 -0.6797021
      vertex -0.009748047 -0.22387984 -0.6809385
    endloop
  endfacet
  facet normal 0.9601968708196591 0.05745801895292859 0.2733505904989777
    outer loop
      vertex -0.009748047 -0.22387984 -0.6809385
      vertex -0.008906582 -0.24382384 -0.6797021
      vertex -0.009140556 -0.22398512 -0.6830503
    endloop
  endfacet
  facet normal 0.960196944149157 0.05745797780478059 0.2733503415640925
    outer loop
      vertex -0.008906582 -0.24382384 -0.6797021
      vertex -0.008299091 -0.24392913 -0.6818139
      vertex -0.009140556 -0.22398512 -0.6830503
    endloop
  endfacet
  facet normal 0.6934877859014837 0.07368935472783267 0.7166900095614933
    outer loop
      vertex -0.009140556 -0.22398512 -0.6830503
      vertex -0.008299091 -0.24392913 -0.6818139
      vertex -0.0075582545 -0.22401309 -0.6845785
    endloop
  endfacet
  facet normal 0.6934876718104651 0.07368937402099052 0.7166901179751923
    outer loop
      vertex -0.008299091 -0.24392913 -0.6818139
      vertex -0.006716789 -0.2439571 -0.6833421
      vertex -0.0075582545 -0.22401309 -0.6845785
    endloop
  endfacet
  facet normal 0.24093262189871237 0.07017513306025093 0.9680015095055319
    outer loop
      vertex -0.0075582545 -0.22401309 -0.6845785
      vertex -0.006716789 -0.2439571 -0.6833421
      vertex -0.0054251193 -0.22395627 -0.68511355
    endloop
  endfacet
  facet normal 0.2409538198455298 0.07017330847478002 0.9679963654268291
    outer loop
      vertex -0.006716789 -0.2439571 -0.6833421
      vertex -0.0045836545 -0.24390027 -0.6838772
      vertex -0.0054251193 -0.22395627 -0.68511355
    endloop
  endfacet
  facet normal -0.2761325565027499 0.047856517421794885 0.9599273748464064
    outer loop
      vertex -0.0054251193 -0.22395627 -0.68511355
      vertex -0.0045836545 -0.24390027 -0.6838772
      vertex -0.003312723 -0.22382987 -0.6845122
    endloop
  endfacet
  facet normal -0.2761533959735767 0.04785764560296105 0.9599213236768951
    outer loop
      vertex -0.0045836545 -0.24390027 -0.6838772
      vertex -0.0024712582 -0.24377388 -0.6832758
      vertex -0.003312723 -0.22382987 -0.6845122
    endloop
  endfacet
  facet normal -0.7192328663315872 0.01271857626175335 0.6946526627072865
    outer loop
      vertex -0.003312723 -0.22382987 -0.6845122
      vertex -0.0024712582 -0.24377388 -0.6832758
      vertex -0.0017870796 -0.22366776 -0.68293554
    endloop
  endfacet
  facet normal -0.719228531379949 0.012718352724445962 0.694657155115398
    outer loop
      vertex -0.0024712582 -0.24377388 -0.6832758
      vertex -9.4561477E-4 -0.24361175 -0.68169916
      vertex -0.0017870796 -0.22366776 -0.68293554
    endloop
  endfacet
  facet normal -0.9696231883810534 -0.025830938636997196 0.24323576045247147
    outer loop
      vertex -0.0017870796 -0.22366776 -0.68293554
      vertex -9.4561477E-4 -0.24361175 -0.68169916
      vertex -0.0012569845 -0.22351338 -0.680806
    endloop
  endfacet
  facet normal -0.9696237505278548 -0.025830848187358355 0.243233529132433
    outer loop
      vertex -9.4561477E-4 -0.24361175 -0.68169916
      vertex -4.1551958E-4 -0.24345738 -0.6795696
      vertex -0.0012569845 -0.22351338 -0.680806
    endloop
  endfacet
  facet normal -0.9601968828405203 -0.05745801306750974 -0.2733505495104811
    outer loop
      vertex -0.0012569845 -0.22351338 -0.680806
      vertex -4.1551958E-4 -0.24345738 -0.6795696
      vertex -0.001864476 -0.22340809 -0.6786942
    endloop
  endfacet
  facet normal -0.9601968214086812 -0.05745799907749194 -0.27335076824233734
    outer loop
      vertex -4.1551958E-4 -0.24345738 -0.6795696
      vertex -0.001023011 -0.2433521 -0.6774578
      vertex -0.001864476 -0.22340809 -0.6786942
    endloop
  endfacet
  facet normal -0.6934878085737938 -0.07368935432692977 -0.7166899876643995
    outer loop
      vertex -0.001864476 -0.22340809 -0.6786942
      vertex -0.001023011 -0.2433521 -0.6774578
      vertex -0.0034467774 -0.22338012 -0.677166
    endloop
  endfacet
  facet normal -0.6934880254109606 -0.0736893837516615 -0.7166897748216499
    outer loop
      vertex -0.001023011 -0.2433521 -0.6774578
      vertex -0.0026053125 -0.24332412 -0.6759296
      vertex -0.0034467774 -0.22338012 -0.677166
    endloop
  endfacet
  facet normal -0.240975348511115 -0.07017629911794421 -0.9679907894458787
    outer loop
      vertex -0.0034467774 -0.22338012 -0.677166
      vertex -0.0026053125 -0.24332412 -0.6759296
      vertex -0.005579912 -0.22343694 -0.67663085
    endloop
  endfacet
  facet normal -0.240953789512607 -0.07017327143619757 -0.9679963756623556
    outer loop
      vertex -0.0026053125 -0.24332412 -0.6759296
      vertex -0.0047384473 -0.24338095 -0.6753945
      vertex -0.005579912 -0.22343694 -0.67663085
    endloop
  endfacet
  facet normal -0.04207262983961431 0.9972000981697658 -0.06182117783242483
    outer loop
      vertex -0.001864476 -0.22340809 -0.6786942
      vertex 0.002415571 -0.22306865 -0.6761317
      vertex -0.0012569845 -0.22351338 -0.680806
    endloop
  endfacet
  facet normal -0.04207514169312228 0.9972001144408487 -0.06181920583978909
    outer loop
      vertex 0.002415571 -0.22306865 -0.6761317
      vertex 0.0037377581 -0.2232978 -0.680728
      vertex -0.0012569845 -0.22351338 -0.680806
    endloop
  endfacet
  facet normal -0.04207516351115985 0.9972001875966049 -0.06181801090948372
    outer loop
      vertex -0.0012569845 -0.22351338 -0.680806
      vertex 0.0037377581 -0.2232978 -0.680728
      vertex -0.0017870796 -0.22366776 -0.68293554
    endloop
  endfacet
  facet normal -0.04207489226924557 0.9972001572735683 -0.061818684668166764
    outer loop
      vertex 0.0037377581 -0.2232978 -0.680728
      vertex 0.0025840218 -0.22363381 -0.68536294
      vertex -0.0017870796 -0.22366776 -0.68293554
    endloop
  endfacet
  facet normal -0.04207438885508606 0.9972002347776935 -0.06181777706925333
    outer loop
      vertex -0.0017870796 -0.22366776 -0.68293554
      vertex 0.0025840218 -0.22363381 -0.68536294
      vertex -0.003312723 -0.22382987 -0.6845122
    endloop
  endfacet
  facet normal -0.04207434897690928 0.997200253867852 -0.06181749626166461
    outer loop
      vertex 0.0025840218 -0.22363381 -0.68536294
      vertex -7.3649606E-4 -0.22398664 -0.68879455
      vertex -0.003312723 -0.22382987 -0.6845122
    endloop
  endfacet
  facet normal -0.04207211795107957 0.9972004307977779 -0.061816160571788285
    outer loop
      vertex -0.003312723 -0.22382987 -0.6845122
      vertex -7.3649606E-4 -0.22398664 -0.68879455
      vertex -0.0054251193 -0.22395627 -0.68511355
    endloop
  endfacet
  facet normal -0.04207406151115687 0.9972001954532435 -0.061818634213063266
    outer loop
      vertex -7.3649606E-4 -0.22398664 -0.68879455
      vertex -0.005334065 -0.22426176 -0.6901034
      vertex -0.0054251193 -0.22395627 -0.68511355
    endloop
  endfacet
  facet normal -0.042068097778815323 0.9972004528278336 -0.061818541144512074
    outer loop
      vertex -0.0054251193 -0.22395627 -0.68511355
      vertex -0.005334065 -0.22426176 -0.6901034
      vertex -0.0075582545 -0.22401309 -0.6845785
    endloop
  endfacet
  facet normal -0.04207325022233563 0.9972001078260003 -0.06182059986397691
    outer loop
      vertex -0.005334065 -0.22426176 -0.6901034
      vertex -0.00997677 -0.22438544 -0.68893874
      vertex -0.0075582545 -0.22401309 -0.6845785
    endloop
  endfacet
  facet normal -0.04207735872862296 0.9972000759179026 -0.0618183182539926
    outer loop
      vertex -0.0075582545 -0.22401309 -0.6845785
      vertex -0.00997677 -0.22438544 -0.68893874
      vertex -0.009140556 -0.22398512 -0.6830503
    endloop
  endfacet
  facet normal -0.042073108522273216 0.997200217236254 -0.06181893143076183
    outer loop
      vertex -0.00997677 -0.22438544 -0.68893874
      vertex -0.013420602 -0.22432455 -0.6856127
      vertex -0.009140556 -0.22398512 -0.6830503
    endloop
  endfacet
  facet normal -0.04207430770526903 0.9972002902119524 -0.061816938069755294
    outer loop
      vertex -0.009140556 -0.22398512 -0.6830503
      vertex -0.013420602 -0.22432455 -0.6856127
      vertex -0.009748047 -0.22387984 -0.6809385
    endloop
  endfacet
  facet normal -0.04207177541036533 0.9972002738081975 -0.06181892615272055
    outer loop
      vertex -0.013420602 -0.22432455 -0.6856127
      vertex -0.01474279 -0.2240954 -0.68101645
      vertex -0.009748047 -0.22387984 -0.6809385
    endloop
  endfacet
  facet normal -0.04207172289924358 0.9972000976342013 -0.061821803683075195
    outer loop
      vertex -0.009748047 -0.22387984 -0.6809385
      vertex -0.01474279 -0.2240954 -0.68101645
      vertex -0.009217952 -0.22372545 -0.6788089
    endloop
  endfacet
  facet normal -0.04207378501115671 0.9972003281724097 -0.061816681467656384
    outer loop
      vertex -0.01474279 -0.2240954 -0.68101645
      vertex -0.013589053 -0.2237594 -0.6763815
      vertex -0.009217952 -0.22372545 -0.6788089
    endloop
  endfacet
  facet normal -0.04207382851341577 0.9972003214750894 -0.06181675989731037
    outer loop
      vertex -0.009217952 -0.22372545 -0.6788089
      vertex -0.013589053 -0.2237594 -0.6763815
      vertex -0.0076923086 -0.22356334 -0.6772322
    endloop
  endfacet
  facet normal -0.04207400538254872 0.9972002368024567 -0.06181800540452284
    outer loop
      vertex -0.013589053 -0.2237594 -0.6763815
      vertex -0.010268535 -0.22340657 -0.6729499
      vertex -0.0076923086 -0.22356334 -0.6772322
    endloop
  endfacet
  facet normal -0.04207193744790131 0.9972004007995823 -0.06181676734133186
    outer loop
      vertex -0.0076923086 -0.22356334 -0.6772322
      vertex -0.010268535 -0.22340657 -0.6729499
      vertex -0.005579912 -0.22343694 -0.67663085
    endloop
  endfacet
  facet normal -0.042073888968872555 0.9972001644878005 -0.061819251148317
    outer loop
      vertex -0.010268535 -0.22340657 -0.6729499
      vertex -0.0056709666 -0.22313145 -0.67164105
      vertex -0.005579912 -0.22343694 -0.67663085
    endloop
  endfacet
  facet normal -0.042071170549488245 0.9972002818096336 -0.06181920872498482
    outer loop
      vertex -0.005579912 -0.22343694 -0.67663085
      vertex -0.0056709666 -0.22313145 -0.67164105
      vertex -0.0034467774 -0.22338012 -0.677166
    endloop
  endfacet
  facet normal -0.04207250359022193 0.9972001925495217 -0.061819741352156295
    outer loop
      vertex -0.0056709666 -0.22313145 -0.67164105
      vertex -0.0010282615 -0.22300777 -0.67280567
      vertex -0.0034467774 -0.22338012 -0.677166
    endloop
  endfacet
  facet normal -0.0420765591612714 0.9972001610509287 -0.06181748918510292
    outer loop
      vertex -0.0034467774 -0.22338012 -0.677166
      vertex -0.0010282615 -0.22300777 -0.67280567
      vertex -0.001864476 -0.22340809 -0.6786942
    endloop
  endfacet
  facet normal -0.04207468643337839 0.997200223319926 -0.061817759359449276
    outer loop
      vertex -0.0010282615 -0.22300777 -0.67280567
      vertex 0.002415571 -0.22306865 -0.6761317
      vertex -0.001864476 -0.22340809 -0.6786942
    endloop
  endfacet
  facet normal 0.04207352839619544 -0.9972004820670435 0.061814373519035015
    outer loop
      vertex -0.008299091 -0.24392913 -0.6818139
      vertex -0.012579137 -0.24426855 -0.6843763
      vertex -0.006716789 -0.2439571 -0.6833421
    endloop
  endfacet
  facet normal 0.04207248874498894 -0.997200166495061 0.06182017173241475
    outer loop
      vertex -0.012579137 -0.24426855 -0.6843763
      vertex -0.009135305 -0.24432945 -0.6877024
      vertex -0.006716789 -0.2439571 -0.6833421
    endloop
  endfacet
  facet normal 0.04207437381956551 -0.9972001518577581 0.06181912489315498
    outer loop
      vertex -0.006716789 -0.2439571 -0.6833421
      vertex -0.009135305 -0.24432945 -0.6877024
      vertex -0.0045836545 -0.24390027 -0.6838772
    endloop
  endfacet
  facet normal 0.042074571227826894 -0.9972001580474952 0.06181889068921785
    outer loop
      vertex -0.009135305 -0.24432945 -0.6877024
      vertex -0.0044926 -0.24420576 -0.68886703
      vertex -0.0045836545 -0.24390027 -0.6838772
    endloop
  endfacet
  facet normal 0.04206520627280822 -0.9972005621963305 0.061818744540377286
    outer loop
      vertex -0.0045836545 -0.24390027 -0.6838772
      vertex -0.0044926 -0.24420576 -0.68886703
      vertex -0.0024712582 -0.24377388 -0.6832758
    endloop
  endfacet
  facet normal 0.042072943737366815 -0.9972004099076561 0.06181593552859081
    outer loop
      vertex -0.0044926 -0.24420576 -0.68886703
      vertex 1.0496881E-4 -0.24393065 -0.6875582
      vertex -0.0024712582 -0.24377388 -0.6832758
    endloop
  endfacet
  facet normal 0.04208354460626466 -0.9971995691498937 0.06182228207239561
    outer loop
      vertex -0.0024712582 -0.24377388 -0.6832758
      vertex 1.0496881E-4 -0.24393065 -0.6875582
      vertex -9.4561477E-4 -0.24361175 -0.68169916
    endloop
  endfacet
  facet normal 0.04207110994565351 -0.9972002298341043 0.06182008837546468
    outer loop
      vertex 1.0496881E-4 -0.24393065 -0.6875582
      vertex 0.0034254866 -0.24357782 -0.68412656
      vertex -9.4561477E-4 -0.24361175 -0.68169916
    endloop
  endfacet
  facet normal 0.042068041362627304 -0.9972007022428735 0.061814556070818025
    outer loop
      vertex -9.4561477E-4 -0.24361175 -0.68169916
      vertex 0.0034254866 -0.24357782 -0.68412656
      vertex -4.1551958E-4 -0.24345738 -0.6795696
    endloop
  endfacet
  facet normal 0.04207167935666735 -0.9972003592390035 0.06181761342620505
    outer loop
      vertex 0.0034254866 -0.24357782 -0.68412656
      vertex 0.004579223 -0.24324182 -0.67949164
      vertex -4.1551958E-4 -0.24345738 -0.6795696
    endloop
  endfacet
  facet normal 0.04207170505236968 -0.9972004454339396 0.06181620548318196
    outer loop
      vertex -4.1551958E-4 -0.24345738 -0.6795696
      vertex 0.004579223 -0.24324182 -0.67949164
      vertex -0.001023011 -0.2433521 -0.6774578
    endloop
  endfacet
  facet normal 0.04207284486156658 -0.9972002018973004 0.06181935830496586
    outer loop
      vertex 0.004579223 -0.24324182 -0.67949164
      vertex 0.0032570357 -0.24301267 -0.6748954
      vertex -0.001023011 -0.2433521 -0.6774578
    endloop
  endfacet
  facet normal 0.042072543276433554 -0.9972001835433385 0.061819859619580336
    outer loop
      vertex -0.001023011 -0.2433521 -0.6774578
      vertex 0.0032570357 -0.24301267 -0.6748954
      vertex -0.0026053125 -0.24332412 -0.6759296
    endloop
  endfacet
  facet normal 0.04207294002279864 -0.9972003039736449 0.06181764693603722
    outer loop
      vertex 0.0032570357 -0.24301267 -0.6748954
      vertex -1.8679658E-4 -0.24295178 -0.6715693
      vertex -0.0026053125 -0.24332412 -0.6759296
    endloop
  endfacet
  facet normal 0.04207387128464524 -0.9972002967414022 0.06181712977793916
    outer loop
      vertex -0.0026053125 -0.24332412 -0.6759296
      vertex -1.8679658E-4 -0.24295178 -0.6715693
      vertex -0.0047384473 -0.24338095 -0.6753945
    endloop
  endfacet
  facet normal 0.04207210804427616 -0.9972002414541138 0.06181922167552617
    outer loop
      vertex -1.8679658E-4 -0.24295178 -0.6715693
      vertex -0.0048295017 -0.24307546 -0.6704047
      vertex -0.0047384473 -0.24338095 -0.6753945
    endloop
  endfacet
  facet normal 0.042074468105724676 -0.9972001395965447 0.06181925850616276
    outer loop
      vertex -0.0047384473 -0.24338095 -0.6753945
      vertex -0.0048295017 -0.24307546 -0.6704047
      vertex -0.006850844 -0.24350736 -0.6759959
    endloop
  endfacet
  facet normal 0.04207410942243982 -0.997200146657709 0.06181938872354234
    outer loop
      vertex -0.0048295017 -0.24307546 -0.6704047
      vertex -0.009427071 -0.24335058 -0.67171353
      vertex -0.006850844 -0.24350736 -0.6759959
    endloop
  endfacet
  facet normal 0.04207349912424154 -0.99720019505809 0.061819023346780244
    outer loop
      vertex -0.006850844 -0.24350736 -0.6759959
      vertex -0.009427071 -0.24335058 -0.67171353
      vertex -0.0083764875 -0.24366947 -0.67757255
    endloop
  endfacet
  facet normal 0.042072722571725556 -0.9972002363146837 0.06181888634828135
    outer loop
      vertex -0.009427071 -0.24335058 -0.67171353
      vertex -0.012747589 -0.24370341 -0.67514515
      vertex -0.0083764875 -0.24366947 -0.67757255
    endloop
  endfacet
  facet normal 0.04207018961473423 -0.9972006262653585 0.061814319714422014
    outer loop
      vertex -0.0083764875 -0.24366947 -0.67757255
      vertex -0.012747589 -0.24370341 -0.67514515
      vertex -0.008906582 -0.24382384 -0.6797021
    endloop
  endfacet
  facet normal 0.042075516434467074 -0.9972001240137053 0.06181879636343395
    outer loop
      vertex -0.012747589 -0.24370341 -0.67514515
      vertex -0.013901325 -0.24403942 -0.67978007
      vertex -0.008906582 -0.24382384 -0.6797021
    endloop
  endfacet
  facet normal 0.042075458448765236 -0.9971999295184595 0.06182197315442063
    outer loop
      vertex -0.008906582 -0.24382384 -0.6797021
      vertex -0.013901325 -0.24403942 -0.67978007
      vertex -0.008299091 -0.24392913 -0.6818139
    endloop
  endfacet
  facet normal 0.04207301784904712 -0.9972004510003708 0.06181522218459462
    outer loop
      vertex -0.013901325 -0.24403942 -0.67978007
      vertex -0.012579137 -0.24426855 -0.6843763
      vertex -0.008299091 -0.24392913 -0.6818139
    endloop
  endfacet
endsolid Full_arm_assembly_objects_5
